<svg width="24" height="24" viewBox="0 0 24 24" fill="none" xmlns="http://www.w3.org/2000/svg">
<g id="vuesax/outline/arrow-down">
<g id="arrow-down">
<g id="Group 1">
<path id="Vector" d="M11.6675 19.5975C10.9675 19.5975 10.2675 19.3275 9.7375 18.7975L3.2175 12.2775C2.9275 11.9875 2.9275 11.5075 3.2175 11.2175C3.5075 10.9275 3.9875 10.9275 4.2775 11.2175L10.7975 17.7375C11.2775 18.2175 12.0575 18.2175 12.5375 17.7375L19.0575 11.2175C19.3475 10.9275 19.8275 10.9275 20.1175 11.2175C20.4075 11.5075 20.4075 11.9875 20.1175 12.2775L13.5975 18.7975C13.0675 19.3275 12.3675 19.5975 11.6675 19.5975Z" fill="#898D8D"/>
<path id="Vector_2" d="M11.6675 12.5975C10.9675 12.5975 10.2675 12.3275 9.7375 11.7975L3.2175 5.2775C2.9275 4.9875 2.9275 4.5075 3.2175 4.2175C3.5075 3.9275 3.9875 3.9275 4.2775 4.2175L10.7975 10.7375C11.2775 11.2175 12.0575 11.2175 12.5375 10.7375L19.0575 4.2175C19.3475 3.9275 19.8275 3.9275 20.1175 4.2175C20.4075 4.5075 20.4075 4.9875 20.1175 5.2775L13.5975 11.7975C13.0675 12.3275 12.3675 12.5975 11.6675 12.5975Z" fill="#898D8D"/>
</g>
</g>
</g>
</svg>
